# xmcd
#
# Track frame offsets: 
#        150
#        19965
#        36582
#        52227
#        78680
#        92805
#        112695
#        129777
#        143692
#        160795
#        185185
#        198932
#
# Disc length: 2956 seconds
#
# Revision: 2
# Processed by: cddbd v1.4PL0 Copyright (c) Steve Scherf et al.
# Submitted via: ExactAudioCopy v0.95a2
#
DISCID=a40b8a0c
DTITLE=Mem Shannon - Spend Some Time With Me
DYEAR=1999
DGENRE=
TTITLE0=Who Are They
TTITLE1=Paying My Dues
TTITLE2=Not My Friend
TTITLE3=Don't Talk About My Mama
TTITLE4=The Last Time I Was Here
TTITLE5=Pray For The Children
TTITLE6=Dirty Dishes
TTITLE7=A Certain Shade Of Blue
TTITLE8=Spend Some Time With Me
TTITLE9=Mother's Love
TTITLE10=Born In This Time
TTITLE11=No Such Thing
EXTD=
EXTT0=
EXTT1=
EXTT2=
EXTT3=
EXTT4=
EXTT5=
EXTT6=
EXTT7=
EXTT8=
EXTT9=
EXTT10=
EXTT11=
PLAYORDER=
